<?xml version="1.0" standalone="no"?>
<!DOCTYPE svg PUBLIC "-//W3C//DTD SVG 20010904//EN"
 "http://www.w3.org/TR/2001/REC-SVG-20010904/DTD/svg10.dtd">
<svg version="1.0" xmlns="http://www.w3.org/2000/svg"
 width="690.000000pt" height="690.000000pt" viewBox="0 0 690.000000 690.000000"
 preserveAspectRatio="xMidYMid meet">

<g transform="translate(0.000000,690.000000) scale(0.100000,-0.100000)"
fill="#a143cc" stroke="none">
<path d="M3150 6073 c-14 -2 -65 -11 -115 -19 -368 -60 -673 -253 -875 -553
-53 -79 -130 -240 -165 -346 -146 -438 -41 -886 295 -1256 l74 -82 -29 -21
c-266 -192 -416 -363 -552 -635 -230 -455 -227 -932 7 -1406 73 -148 156 -260
302 -411 181 -186 304 -276 479 -350 271 -114 523 -162 804 -151 364 14 595
97 780 282 231 231 345 498 345 809 0 441 -202 798 -600 1063 -142 95 -280
151 -420 172 -41 6 -86 13 -100 15 -14 2 7 4 45 5 175 3 463 -105 646 -244
172 -129 339 -335 441 -545 85 -173 113 -326 105 -568 -6 -190 -25 -274 -96
-417 l-50 -100 54 58 c117 124 261 374 324 562 60 179 75 279 75 500 0 169 -3
217 -22 310 -67 328 -202 584 -426 810 -119 120 -212 195 -241 195 -10 0 -48
-26 -84 -57 -82 -70 -212 -156 -288 -190 -32 -14 -159 -61 -281 -105 -123 -43
-265 -97 -315 -120 -95 -41 -256 -140 -238 -146 5 -2 41 6 79 17 82 25 134 26
235 7 126 -24 239 -76 372 -171 133 -94 231 -234 277 -393 30 -105 26 -287 -8
-389 -57 -170 -188 -328 -334 -403 -66 -34 -67 -40 -29 -140 18 -50 38 -90 45
-90 6 0 56 16 109 35 54 20 99 34 100 33 12 -14 83 -214 77 -219 -4 -3 -50
-23 -102 -43 -52 -21 -96 -39 -98 -41 -2 -1 13 -45 32 -96 20 -51 32 -96 28
-100 -4 -4 -52 -23 -106 -44 -71 -28 -103 -35 -114 -28 -9 5 -31 46 -50 91
-19 45 -38 82 -44 82 -5 0 -48 -14 -95 -30 -46 -17 -90 -30 -97 -30 -11 0
-102 209 -94 214 2 1 47 19 101 40 53 21 97 43 97 49 0 22 -72 196 -85 207 -8
7 -47 16 -87 21 -109 13 -165 28 -246 65 -194 88 -326 232 -388 421 -26 78
-29 102 -28 203 1 141 24 235 89 367 58 117 142 229 245 326 165 155 318 241
591 331 301 99 479 205 680 405 226 226 349 427 416 678 23 86 26 118 27 263
1 183 -9 249 -59 406 -62 190 -157 345 -300 489 -280 282 -596 417 -970 413
-66 0 -131 -3 -145 -5z m-45 -120 c-4 -10 -13 -45 -20 -79 -26 -123 11 -217
120 -307 103 -85 152 -107 605 -267 354 -126 499 -229 604 -430 60 -114 78
-182 83 -320 9 -199 -20 -288 -165 -522 -37 -60 -70 -108 -74 -108 -4 0 14 42
41 94 79 154 96 230 95 426 0 154 -2 170 -26 232 -38 95 -86 166 -181 265
-170 177 -337 282 -662 416 -234 96 -308 139 -396 234 -64 69 -79 110 -79 214
0 83 -12 79 -30 -8 -14 -65 1 -156 38 -231 47 -95 97 -132 435 -312 84 -45
130 -77 159 -109 74 -84 108 -175 108 -288 0 -85 -22 -153 -72 -218 -42 -55
-76 -75 -128 -75 -78 0 -137 49 -149 126 -8 49 -8 49 -19 21 -19 -46 -15 -110
11 -147 40 -59 69 -74 160 -80 l82 -5 -55 -43 c-30 -24 -151 -93 -269 -154
-191 -99 -221 -111 -278 -116 -105 -8 -133 20 -133 131 0 72 -17 110 -66 151
-32 26 -35 32 -29 66 5 32 3 39 -19 54 -30 19 -33 44 -10 87 21 41 8 54 -64
68 -55 11 -132 52 -132 71 0 4 30 35 67 67 57 50 123 132 123 154 0 4 -35 20
-77 35 l-78 29 67 6 c95 8 112 25 105 104 -3 33 -12 107 -22 165 -28 174 -7
284 81 413 52 76 115 136 189 178 58 33 70 36 60 12z m1049 -1398 c-1 -248
-169 -579 -389 -767 -175 -149 -314 -218 -720 -358 -332 -115 -577 -276 -753
-498 -229 -288 -325 -539 -325 -857 -1 -343 90 -591 301 -817 52 -56 64 -72
37 -51 -64 50 -178 172 -224 242 -136 201 -199 477 -171 751 35 351 151 593
404 845 225 223 361 300 791 450 288 100 373 140 520 246 298 213 471 493 498
807 8 91 14 118 21 105 6 -10 10 -54 10 -98z m-622 -282 c47 -52 67 -165 48
-270 -30 -165 -140 -304 -302 -382 -124 -59 -204 -75 -346 -68 -131 6 -215 29
-331 93 -72 39 -164 104 -158 110 2 3 30 -8 62 -22 106 -49 221 -75 351 -81
161 -7 254 11 393 79 168 81 254 183 282 334 15 82 6 158 -26 206 -21 31 -22
37 -8 30 10 -6 26 -19 35 -29z"/>
<path d="M5375 4690 c-162 -42 -334 -127 -477 -236 -93 -71 -283 -265 -365
-375 -40 -52 -73 -98 -73 -101 0 -11 164 24 200 42 21 11 87 72 148 136 61 64
115 115 120 113 5 -2 -38 -64 -95 -138 -57 -74 -100 -138 -96 -142 15 -15 99
-32 124 -26 40 10 158 116 232 207 49 60 91 130 145 240 80 164 125 223 199
267 24 14 43 27 43 29 0 8 -35 2 -105 -16z"/>
<path d="M4552 3969 c-68 -11 -135 -46 -192 -98 l-45 -42 35 8 c19 4 89 8 155
8 137 -1 190 -16 294 -86 62 -41 333 -282 340 -302 5 -14 -33 17 -155 127
-189 170 -310 229 -469 228 -55 0 -105 -6 -130 -15 l-40 -16 62 0 c70 -1 172
-34 232 -75 21 -15 84 -74 142 -133 168 -172 250 -226 414 -274 70 -20 101
-23 240 -23 131 0 175 4 244 22 47 12 87 24 89 27 6 6 -9 10 -88 26 -117 23
-188 68 -342 215 -333 318 -570 439 -786 403z"/>
</g>
</svg>
