<?xml version="1.0" standalone="no"?>
<!DOCTYPE svg PUBLIC "-//W3C//DTD SVG 20010904//EN"
 "http://www.w3.org/TR/2001/REC-SVG-20010904/DTD/svg10.dtd">
<svg version="1.0" xmlns="http://www.w3.org/2000/svg"
 width="600.000000pt" height="600.000000pt" viewBox="0 0 600.000000 600.000000"
 preserveAspectRatio="xMidYMid meet">

<g transform="translate(0.000000,600.000000) scale(0.100000,-0.100000)"
fill="#000000" stroke="none">
<path d="M2687 5363 c-4 -4 -7 -210 -7 -457 0 -248 0 -461 0 -473 l0 -23 -555
0 -555 0 0 -190 0 -190 555 0 554 0 3 -1057 c4 -1190 -2 -1096 82 -1268 74
-149 194 -263 347 -327 122 -51 187 -58 545 -58 l324 0 -2 213 -3 212 -175 5
c-197 6 -227 14 -280 78 -43 52 -63 123 -64 222 -1 47 0 511 2 1033 l2 947
260 0 260 0 0 190 0 190 -260 0 -260 0 0 23 c0 12 -1 227 -3 477 l-2 455 -381
3 c-209 1 -384 -1 -387 -5z"/>
<path d="M300 3147 c0 -1224 1 -1266 20 -1341 63 -247 250 -435 500 -503 100
-27 415 -24 525 6 90 24 202 74 270 121 25 17 49 29 53 26 4 -2 18 -34 32 -70
l24 -66 303 0 303 0 0 1320 0 1320 -385 0 -385 0 0 -1059 0 -1059 -38 -15
c-64 -26 -159 -40 -228 -34 -92 7 -149 43 -189 122 l-30 59 -3 1218 -2 1218
-385 0 -385 0 0 -1263z"/>
<path d="M4591 4399 c-372 -73 -640 -408 -745 -931 -46 -226 -51 -289 -51
-603 0 -314 5 -377 51 -603 83 -418 280 -731 537 -857 123 -60 188 -76 339
-82 347 -15 626 78 775 259 86 103 157 288 178 461 l6 57 -313 -2 -313 -3 -6
-90 c-3 -49 -9 -99 -14 -110 -40 -100 -160 -156 -248 -117 -70 32 -113 86
-136 171 -46 166 -56 320 -56 856 0 562 16 914 45 1008 23 75 58 120 115 147
77 37 166 15 213 -55 36 -51 45 -100 46 -240 l1 -130 343 -3 342 -2 0 29 c0
59 -30 258 -50 331 -84 304 -295 462 -680 510 -99 12 -316 12 -379 -1z"/>
<path d="M2217 1014 c-4 -4 -7 -38 -7 -76 l0 -69 -22 15 c-53 37 -128 -1 -148
-76 -33 -120 61 -222 144 -157 21 17 26 18 26 5 0 -9 8 -16 20 -16 20 0 20 5
18 187 -3 175 -8 209 -31 187z m-23 -176 c10 -13 16 -43 16 -73 0 -66 -20 -95
-65 -95 -38 0 -62 19 -71 56 -9 35 2 93 22 115 24 27 79 25 98 -3z"/>
<path d="M2730 945 c0 -41 -2 -75 -5 -75 -3 0 -17 7 -31 17 -34 22 -90 8 -117
-29 -25 -33 -33 -114 -17 -162 20 -62 100 -85 144 -41 19 19 26 19 26 0 0 -8
7 -15 15 -15 13 0 15 28 15 190 0 162 -2 190 -15 190 -12 0 -15 -15 -15 -75z
m-26 -101 c34 -34 33 -122 -3 -157 -26 -26 -70 -25 -93 3 -23 28 -25 116 -2
148 18 26 74 30 98 6z"/>
<path d="M4497 1014 c-4 -4 -7 -90 -7 -191 0 -177 1 -183 20 -183 20 0 20 5
18 187 -3 175 -8 209 -31 187z"/>
<path d="M1004 995 c-7 -18 3 -35 21 -35 15 0 24 19 18 38 -6 17 -32 15 -39
-3z"/>
<path d="M1947 997 c-3 -8 -2 -20 3 -27 11 -18 42 -4 38 17 -4 22 -34 29 -41
10z"/>
<path d="M422 839 l3 -161 28 -24 c49 -42 139 -25 165 31 18 40 17 315 -2 315
-11 0 -15 -30 -18 -144 -4 -163 -13 -186 -73 -186 -60 0 -70 23 -73 186 -3
119 -6 144 -19 144 -12 0 -14 -24 -11 -161z"/>
<path d="M2947 994 c-20 -20 -5 -34 38 -34 36 0 45 -3 45 -17 1 -10 1 -82 0
-160 -1 -137 0 -143 19 -143 20 0 21 7 23 158 l3 157 48 3 c39 3 48 6 45 20
-3 14 -19 17 -109 20 -58 1 -108 -1 -112 -4z"/>
<path d="M4015 986 c-127 -55 -133 -290 -9 -342 61 -26 154 -10 154 27 0 16
-4 17 -26 9 -14 -6 -43 -10 -64 -10 -113 0 -158 173 -69 263 29 28 33 29 95
24 56 -4 64 -3 64 13 0 31 -89 41 -145 16z"/>
<path d="M4648 959 c-11 -6 -18 -22 -18 -39 0 -23 -5 -30 -20 -30 -11 0 -20
-7 -20 -15 0 -8 9 -15 19 -15 17 0 19 -10 23 -101 3 -87 6 -103 23 -115 26
-19 69 -14 73 8 2 12 -5 17 -25 20 l-28 3 -3 93 -3 92 31 0 c20 0 30 5 30 15
0 10 -10 15 -29 15 -27 0 -30 3 -33 39 -3 35 -5 38 -20 30z"/>
<path d="M786 879 c-21 -17 -26 -18 -26 -5 0 9 -8 16 -20 16 -19 0 -20 -7 -20
-125 0 -118 1 -125 20 -125 18 0 20 7 20 80 0 105 16 140 65 140 47 0 55 -20
55 -129 0 -86 1 -91 21 -91 20 0 21 4 17 106 -3 102 -4 107 -31 130 -34 29
-66 31 -101 3z"/>
<path d="M1364 866 c-24 -24 -34 -44 -35 -67 -4 -116 26 -169 95 -169 37 0 76
21 76 40 0 16 -4 16 -36 5 -20 -7 -45 -10 -56 -7 -23 6 -48 51 -48 87 0 25 1
25 76 25 l77 0 -6 38 c-7 43 -46 82 -84 82 -15 0 -38 -13 -59 -34z m101 -26
c19 -21 18 -22 -30 -22 -78 -1 -80 0 -60 22 10 11 30 20 45 20 15 0 35 -9 45
-20z"/>
<path d="M1646 879 c-21 -17 -26 -18 -26 -5 0 9 -8 16 -20 16 -19 0 -20 -7
-20 -125 0 -118 1 -125 20 -125 18 0 20 7 20 88 0 98 14 132 56 132 17 0 24 5
24 20 0 26 -20 25 -54 -1z"/>
<path d="M1763 888 c-28 -14 -46 -57 -35 -87 4 -12 30 -35 58 -49 38 -21 49
-32 49 -52 0 -24 -3 -25 -57 -24 -61 1 -78 -15 -39 -36 72 -38 168 32 128 94
-9 13 -35 35 -59 48 -33 18 -43 29 -43 48 0 24 3 25 53 25 35 -1 52 3 52 12 0
29 -64 42 -107 21z"/>
<path d="M2358 888 c-17 -6 -28 -17 -28 -29 0 -20 10 -25 26 -10 9 10 35 14
67 12 15 -1 43 -48 34 -57 -2 -2 -28 -8 -58 -14 -63 -12 -89 -37 -89 -86 0
-65 70 -96 124 -53 21 17 26 18 26 5 0 -9 7 -16 15 -16 12 0 15 18 15 105 0
99 -2 107 -25 130 -26 27 -60 31 -107 13z m92 -172 c-18 -57 -92 -66 -98 -12
-4 36 7 47 55 56 49 9 58 0 43 -44z"/>
<path d="M3261 881 c-25 -25 -31 -26 -31 -6 0 8 -7 15 -15 15 -13 0 -15 -21
-15 -125 0 -100 3 -125 14 -125 10 0 15 22 18 90 5 98 21 130 65 130 18 0 24
5 21 17 -5 26 -34 27 -57 4z"/>
<path d="M3387 880 c-34 -27 -50 -80 -44 -143 7 -82 69 -125 141 -97 17 6 26
17 26 31 0 17 -3 19 -14 10 -21 -18 -75 -17 -92 1 -17 16 -35 83 -26 92 3 4
39 6 79 6 l75 0 -7 32 c-10 43 -24 64 -52 77 -35 16 -57 14 -86 -9z m93 -35
c18 -22 9 -27 -49 -29 -51 -1 -63 8 -39 32 17 17 73 15 88 -3z"/>
<path d="M3608 884 c-59 -32 -45 -103 25 -133 77 -33 75 -82 -3 -83 -3 -1 -17
2 -32 6 -23 5 -28 3 -28 -13 0 -35 83 -42 124 -10 19 15 26 30 26 54 0 35 -16
52 -80 87 -23 13 -31 24 -28 40 3 20 9 23 51 23 37 0 47 3 47 16 0 31 -56 38
-102 13z"/>
<path d="M5135 888 c-11 -6 -23 -16 -27 -22 -5 -7 -8 -4 -8 7 0 10 -8 17 -20
17 -19 0 -20 -7 -20 -125 0 -118 1 -125 20 -125 18 0 20 7 20 88 0 98 14 132
56 132 17 0 24 5 24 20 0 22 -15 25 -45 8z"/>
<path d="M5240 887 c-30 -15 -43 -55 -14 -42 43 18 87 18 101 -1 22 -30 15
-43 -24 -49 -84 -14 -113 -39 -113 -96 0 -28 44 -69 73 -69 13 0 36 9 51 21
21 17 26 18 26 5 0 -10 9 -16 21 -16 21 0 22 3 16 107 -5 101 -7 109 -32 130
-29 26 -67 29 -105 10z m95 -165 c-8 -40 -27 -54 -67 -50 -30 3 -33 6 -33 38
0 33 2 36 45 46 53 14 64 7 55 -34z"/>
<path d="M5473 888 c-28 -14 -46 -57 -35 -87 4 -12 30 -35 58 -49 38 -21 49
-32 49 -52 0 -24 -3 -25 -57 -24 -61 1 -78 -15 -39 -36 44 -23 111 -4 130 37
19 41 4 71 -49 98 -56 29 -64 38 -55 66 6 19 13 21 56 17 42 -4 49 -2 49 12 0
28 -64 39 -107 18z"/>
<path d="M1000 765 c0 -118 1 -125 20 -125 19 0 20 7 20 125 0 118 -1 125 -20
125 -19 0 -20 -7 -20 -125z"/>
<path d="M1125 768 c58 -169 67 -169 127 -6 37 98 43 124 31 126 -20 5 -20 6
-57 -104 -20 -57 -37 -93 -40 -84 -3 8 -19 53 -34 100 -23 67 -33 86 -49 88
-20 3 -18 -4 22 -120z"/>
<path d="M1950 765 c0 -118 1 -125 20 -125 19 0 20 7 20 125 0 118 -1 125 -20
125 -19 0 -20 -7 -20 -125z"/>
<path d="M4210 794 c0 -95 8 -128 39 -151 24 -19 65 -15 95 8 21 17 26 18 26
5 0 -9 7 -16 15 -16 13 0 15 21 15 125 0 104 -2 125 -15 125 -12 0 -15 -16
-15 -80 0 -87 -18 -139 -48 -141 -62 -4 -72 14 -72 128 0 86 -1 93 -20 93 -19
0 -20 -7 -20 -96z"/>
<path d="M4770 813 c0 -43 5 -95 10 -115 18 -65 84 -89 128 -48 18 17 22 18
22 5 0 -8 9 -15 20 -15 19 0 20 7 20 125 0 118 -1 125 -20 125 -18 0 -20 -7
-20 -88 0 -94 -12 -125 -51 -135 -14 -4 -29 2 -45 18 -22 22 -24 33 -24 115 0
83 -1 90 -20 90 -18 0 -20 -7 -20 -77z"/>
</g>
</svg>
